<svg width="280" height="272" viewBox="0 0 280 272" fill="none" xmlns="http://www.w3.org/2000/svg">
<g clip-path="url(#clip0_1029_5047)">
<path d="M263.691 239.708C261.617 238.248 259.184 237.381 256.655 237.2C254.126 237.019 251.595 237.531 249.334 238.681C240.842 242.505 241.72 248.018 241.963 255.074C242.207 262.131 246.484 261.466 247.813 262.978C249.142 264.489 248.493 265.037 254.21 265.677C259.926 266.318 263.293 263.995 267.75 259.445C272.207 254.896 270.462 251.332 268.944 246.322C268.57 244.918 267.91 243.606 267.006 242.467C266.102 241.329 264.973 240.39 263.691 239.708Z" fill="black"/>
<path d="M103.216 154.251C100.601 154.255 98.0952 155.296 96.2467 157.146C94.3982 158.996 93.3585 161.505 93.3555 164.121V188.663C93.3555 191.28 94.3943 193.79 96.2436 195.641C98.0929 197.492 100.601 198.532 103.217 198.532C105.832 198.532 108.34 197.492 110.189 195.641C112.039 193.79 113.077 191.28 113.077 188.663V164.117C113.074 161.501 112.033 158.993 110.185 157.144C108.336 155.294 105.83 154.254 103.216 154.251Z" fill="black"/>
<path d="M266.431 94.2202C266.289 94.0856 265.723 93.6437 265.533 94.4822C265.525 94.5445 265.505 94.6046 265.474 94.6593C264.952 97.3888 263.771 99.9492 262.035 102.118C260.298 104.286 258.058 105.996 255.509 107.1C259.422 114.708 265.688 126.691 265.763 126.834C266.161 127.599 266.24 128.491 265.982 129.314C265.725 130.137 265.152 130.824 264.388 131.225C263.924 131.47 263.406 131.598 262.881 131.598C262.287 131.598 261.704 131.435 261.196 131.127C260.687 130.819 260.272 130.378 259.997 129.851C259.908 129.68 251.004 112.652 247.769 106.255C247.518 105.759 247.398 105.206 247.421 104.65C247.444 104.095 247.609 103.554 247.9 103.08C248.191 102.604 248.598 102.212 249.083 101.939C249.569 101.666 250.116 101.522 250.673 101.522C254.762 101.522 259.336 97.1479 259.336 91.2953C259.333 88.5844 258.255 85.9854 256.34 84.0685C254.425 82.1516 251.828 81.0733 249.119 81.0703H239.869V128.477C239.869 129.304 239.54 130.096 238.956 130.681C238.373 131.265 237.581 131.593 236.755 131.593H236.482C235.656 131.593 234.864 131.265 234.28 130.681C233.696 130.096 233.368 129.304 233.368 128.477V77.7134C233.368 76.887 233.696 76.0944 234.28 75.51C234.864 74.9257 235.656 74.5974 236.482 74.5974H237.872C237.956 74.5974 238.037 74.5719 238.123 74.5719H249.124C251.175 74.5736 253.208 74.9579 255.118 75.705C255.148 75.6822 255.184 75.6698 255.222 75.6696C255.912 75.6413 255.602 74.7673 255.529 74.5804C254.538 73.0152 253.516 71.443 252.432 69.8524C213.911 13.2927 213.251 13.3848 172.566 3.65691C131.88 -6.07094 72.128 2.98979 40.0943 38.3446C8.06058 73.6994 -2.45924 103.186 0.478909 147.885C3.41706 192.584 27.835 222.587 39.6159 235.465C51.3968 248.343 103.658 285.454 172.784 266.909C207.719 267.144 221.937 237.217 221.937 237.217C221.937 237.217 227.352 221.825 239.591 218.63C251.831 215.434 270.695 195.357 277.9 169.187C277.893 169.185 287.279 138.243 266.431 94.2202ZM135.712 77.7134C135.712 76.887 136.039 76.0944 136.623 75.51C137.207 74.9257 137.999 74.5974 138.825 74.5974H139.098C139.293 74.5987 139.487 74.6182 139.679 74.6554C139.701 74.6554 139.724 74.6484 139.746 74.6484H151.826C156.156 74.6532 160.307 76.3767 163.368 79.4407C166.43 82.5048 168.152 86.659 168.157 90.9922C168.151 95.3241 166.428 99.4768 163.367 102.54C160.306 105.602 156.156 107.325 151.827 107.33C150.985 107.33 150.177 106.995 149.581 106.399C148.985 105.803 148.65 104.994 148.65 104.151C148.65 103.307 148.985 102.498 149.581 101.902C150.177 101.306 150.985 100.971 151.827 100.971C154.472 100.968 157.008 99.9149 158.878 98.0431C160.749 96.1714 161.801 93.6336 161.804 90.9865C161.801 88.3395 160.749 85.8017 158.878 83.93C157.008 82.0582 154.472 81.0053 151.827 81.0023H142.216V128.477C142.216 129.304 141.888 130.096 141.304 130.681C140.72 131.265 139.928 131.593 139.103 131.593H138.829C138.004 131.593 137.212 131.265 136.628 130.681C136.044 130.096 135.716 129.304 135.716 128.477L135.712 77.7134ZM112.925 77.9613C112.914 77.1206 113.222 76.3069 113.785 75.6833C114.349 75.0597 115.127 74.6723 115.964 74.5988C116.409 74.5691 116.856 74.6313 117.276 74.7817C117.697 74.932 118.081 75.1673 118.407 75.4728C118.733 75.7783 118.992 76.1476 119.169 76.5577C119.346 76.9677 119.437 77.4098 119.436 77.8565V104.06C119.436 104.924 119.093 105.753 118.482 106.363C117.872 106.974 117.044 107.318 116.18 107.318C115.317 107.318 114.489 106.974 113.879 106.363C113.268 105.753 112.925 104.924 112.925 104.06V77.9613ZM86.9985 77.8494C86.9975 77.4027 87.0883 76.9606 87.2652 76.5506C87.4422 76.1405 87.7015 75.7712 88.0271 75.4657C88.3527 75.1602 88.7376 74.925 89.1579 74.7746C89.5782 74.6242 90.0249 74.562 90.4702 74.5917C91.3071 74.6652 92.0854 75.0526 92.6489 75.6762C93.2125 76.2998 93.5195 77.1135 93.5088 77.9542V114.989C93.4865 117.528 94.4434 119.979 96.1803 121.83C97.9172 123.681 100.3 124.791 102.834 124.929C105.03 125.016 107.189 124.354 108.961 123.054C110.732 121.753 112.011 119.89 112.587 117.768C112.768 117.066 113.176 116.445 113.747 115.999C114.317 115.553 115.019 115.309 115.743 115.303C116.244 115.303 116.738 115.418 117.187 115.64C117.636 115.862 118.028 116.184 118.332 116.582C118.636 116.981 118.844 117.443 118.941 117.935C119.037 118.427 119.018 118.934 118.886 119.418C117.963 122.871 115.927 125.923 113.094 128.099C110.261 130.276 106.79 131.457 103.218 131.457C98.9166 131.457 94.7915 129.747 91.7501 126.704C88.7086 123.66 86.9999 119.531 86.9999 115.227L86.9985 77.8494ZM68.9153 204.496C68.4549 204.735 67.9439 204.86 67.4251 204.861C66.8301 204.861 66.2465 204.698 65.738 204.389C65.2296 204.079 64.8159 203.636 64.5421 203.107L44.5256 164.472V201.613C44.5256 202.474 44.1839 203.3 43.5755 203.909C42.9672 204.517 42.142 204.86 41.2817 204.86C40.8556 204.86 40.4336 204.776 40.0399 204.613C39.6462 204.45 39.2884 204.211 38.9871 203.909C38.6857 203.608 38.4467 203.25 38.2836 202.856C38.1204 202.462 38.0365 202.04 38.0365 201.613V151.157C38.0367 150.429 38.2806 149.723 38.7295 149.151C39.1783 148.58 39.806 148.175 40.5119 148.002C41.2179 147.831 41.9612 147.901 42.6227 148.202C43.2842 148.503 43.8257 149.017 44.1605 149.662L70.3066 200.117C70.5026 200.496 70.622 200.91 70.6582 201.335C70.6943 201.76 70.6464 202.188 70.5172 202.595C70.388 203.001 70.1801 203.379 69.9053 203.705C69.6304 204.031 69.294 204.3 68.9153 204.496ZM70.6661 177.159C70.6661 178.02 70.3243 178.846 69.7159 179.455C69.1076 180.063 68.2826 180.405 67.4223 180.405C66.562 180.405 65.7368 180.063 65.1285 179.455C64.5202 178.846 64.1783 178.02 64.1783 177.159V151.157C64.1783 150.296 64.5202 149.47 65.1285 148.861C65.7368 148.252 66.562 147.91 67.4223 147.91C68.2826 147.91 69.1076 148.252 69.7159 148.861C70.3243 149.47 70.6661 150.296 70.6661 151.157V177.159ZM70.3944 81.5887C70.222 81.961 69.978 82.2957 69.6764 82.5735C69.3747 82.8514 69.0213 83.0671 68.6363 83.2082C68.2514 83.3494 67.8423 83.4132 67.4327 83.3961C67.023 83.379 66.6208 83.2813 66.2489 83.1085C62.9207 81.7111 59.3575 80.9599 55.7489 80.8947C44.6077 80.8947 44.4803 88.437 44.4803 88.7586C44.4803 91.9667 44.4803 95.6026 55.095 99.9014C66.0041 104.323 70.6632 109.533 70.6632 117.316C70.6632 122.198 67.0018 131.43 53.1503 131.43C48.6341 131.37 44.1739 130.421 40.0236 128.637C39.6516 128.465 39.3171 128.22 39.0394 127.918C38.7617 127.616 38.5462 127.263 38.4052 126.877C38.2642 126.492 38.2004 126.082 38.2176 125.672C38.2347 125.262 38.3324 124.86 38.505 124.487C38.6764 124.115 38.9195 123.78 39.2205 123.502C39.5215 123.223 39.8744 123.007 40.2589 122.866C40.6435 122.724 41.0524 122.66 41.4617 122.677C41.8711 122.694 42.2731 122.792 42.6447 122.965C45.9745 124.363 49.5398 125.115 53.1503 125.18C64.2901 125.18 64.4176 117.638 64.4176 117.316C64.4176 113.98 63.5175 110.057 52.7556 105.702C40.7143 100.821 38.2474 95.4 38.2474 88.7642C38.2474 83.8819 41.9074 74.6498 55.7617 74.6498C60.2779 74.7107 64.738 75.6597 68.8884 77.4429C69.6365 77.7942 70.2151 78.4279 70.4973 79.2052C70.7796 79.9825 70.7426 80.8387 70.3944 81.5887ZM119.437 188.657C119.437 190.789 119.017 192.9 118.202 194.869C117.387 196.839 116.192 198.628 114.686 200.136C113.18 201.643 111.392 202.838 109.424 203.654C107.456 204.47 105.346 204.889 103.216 204.889C98.9149 204.889 94.7899 203.179 91.7485 200.135C88.7071 197.09 86.9985 192.962 86.9985 188.657V164.114C86.9985 159.809 88.7071 155.681 91.7485 152.637C94.7899 149.593 98.9149 147.882 103.216 147.882C105.346 147.882 107.456 148.301 109.424 149.117C111.392 149.933 113.18 151.128 114.686 152.636C116.192 154.143 117.387 155.932 118.202 157.902C119.017 159.871 119.437 161.982 119.437 164.114V188.657ZM165.009 154.397H155.244V201.632C155.244 202.496 154.901 203.324 154.291 203.935C153.68 204.546 152.852 204.889 151.989 204.889C151.125 204.889 150.297 204.546 149.687 203.935C149.077 203.324 148.734 202.496 148.734 201.632V154.399H138.968C138.105 154.399 137.277 154.056 136.666 153.445C136.056 152.834 135.713 152.005 135.713 151.141C135.713 150.277 136.056 149.448 136.666 148.838C137.277 148.227 138.105 147.883 138.968 147.883H165.009C165.873 147.883 166.701 148.227 167.311 148.838C167.922 149.448 168.265 150.277 168.265 151.141C168.265 151.569 168.18 151.993 168.016 152.389C167.852 152.785 167.612 153.144 167.309 153.447C167.006 153.749 166.647 153.989 166.251 154.152C165.856 154.316 165.432 154.4 165.004 154.399L165.009 154.397ZM213.837 204.888H187.796C186.932 204.888 186.104 204.545 185.494 203.934C184.883 203.323 184.54 202.494 184.54 201.63V191.857C184.54 191.429 184.625 191.006 184.788 190.61C184.952 190.215 185.192 189.856 185.494 189.553C185.796 189.251 186.155 189.011 186.55 188.847C186.945 188.684 187.368 188.599 187.796 188.599C188.659 188.599 189.487 188.942 190.097 189.553C190.708 190.164 191.051 190.993 191.051 191.857V198.372H213.837C214.7 198.372 215.528 198.716 216.139 199.327C216.749 199.938 217.092 200.766 217.092 201.63C217.093 202.059 217.008 202.484 216.844 202.88C216.68 203.276 216.44 203.636 216.137 203.939C215.834 204.241 215.474 204.481 215.077 204.645C214.681 204.808 214.257 204.892 213.828 204.891L213.837 204.888ZM213.837 174.122C214.7 174.122 215.528 174.465 216.139 175.076C216.749 175.687 217.092 176.516 217.092 177.38C217.092 177.808 217.008 178.231 216.844 178.627C216.681 179.022 216.441 179.381 216.139 179.683C215.836 179.986 215.478 180.226 215.083 180.39C214.688 180.553 214.264 180.638 213.837 180.638H187.796C187.368 180.638 186.945 180.553 186.55 180.39C186.155 180.226 185.796 179.986 185.494 179.683C185.192 179.381 184.952 179.022 184.788 178.627C184.625 178.231 184.54 177.808 184.54 177.38V151.143C184.54 150.279 184.883 149.45 185.494 148.839C186.104 148.228 186.932 147.885 187.796 147.885H213.837C214.7 147.885 215.528 148.228 216.139 148.839C216.749 149.45 217.092 150.279 217.092 151.143C217.092 152.007 216.749 152.835 216.139 153.446C215.528 154.057 214.7 154.4 213.837 154.4H191.051V174.125L213.837 174.122ZM213.837 131.595H187.796C186.932 131.595 186.104 131.252 185.494 130.641C184.883 130.03 184.54 129.201 184.54 128.337V118.564C184.54 117.7 184.883 116.871 185.494 116.26C186.104 115.649 186.932 115.306 187.796 115.306C188.659 115.306 189.487 115.649 190.097 116.26C190.708 116.871 191.051 117.7 191.051 118.564V125.079H213.837C214.7 125.079 215.528 125.423 216.139 126.033C216.749 126.644 217.092 127.473 217.092 128.337C217.093 128.766 217.008 129.19 216.844 129.587C216.68 129.983 216.44 130.343 216.137 130.645C215.834 130.948 215.474 131.188 215.077 131.352C214.681 131.515 214.257 131.599 213.828 131.598L213.837 131.595ZM217.092 77.8466C217.092 78.7106 216.749 79.5392 216.139 80.1502C215.528 80.7611 214.7 81.1043 213.837 81.1043H191.051V100.829H213.837C214.7 100.829 215.528 101.172 216.139 101.783C216.749 102.394 217.092 103.223 217.092 104.087C217.092 104.951 216.749 105.779 216.139 106.39C215.528 107.001 214.7 107.345 213.837 107.345H187.796C186.932 107.345 186.104 107.001 185.494 106.39C184.883 105.779 184.54 104.951 184.54 104.087V77.8551C184.54 76.9911 184.883 76.1625 185.494 75.5515C186.104 74.9406 186.932 74.5974 187.796 74.5974H213.837C214.7 74.5974 215.528 74.9406 216.139 75.5515C216.749 76.1625 217.092 76.9911 217.092 77.8551V77.8466Z" fill="black"/>
</g>
<defs>
<clipPath id="clip0_1029_5047">
<rect width="280" height="272" fill="white"/>
</clipPath>
</defs>
</svg>
